# xmcd CD database file
#
# Track frame offsets:
#	150
#	14537
#	32610
#
# Disc length: 618 seconds
#
# Revision: 2
# Processed by: cddbd v1.4b41PL1 Copyright (c) Steve Scherf et al.
# Submitted via: Feurio! 1.58ß - http://www.feurio.com
#
DISCID=1a026803,20026803
DTITLE=Feeder - Buck Rogers
DYEAR=1900
DGENRE=
TTITLE0=Buck Rogers
TTITLE1=We the electronic
TTITLE2=21st century meltdown
EXTD=
EXTT0=
EXTT1=
EXTT2=
PLAYORDER=
